<?xml version="1.0" encoding="UTF-8"?>
<svg id="Calque_1" data-name="Calque 1" xmlns="http://www.w3.org/2000/svg" viewBox="0 0 486.9 512">
  <defs>
    <style>
      .cls-1 {
        fill: #e95d0c;
      }
    </style>
  </defs>
  <path class="cls-1" d="M357.77,182.46v-2.21c-2.18-28.83-26.2-51.1-55.11-51.11-4.22.07-8.42.61-12.52,1.62-17.96-33.07-59.34-45.32-92.41-27.36-11.57,6.28-21.07,15.79-27.36,27.36-4.18-1.03-8.47-1.57-12.78-1.62-30.56.05-55.32,24.81-55.37,55.37v4.26c-18.82,14.11-22.63,40.81-8.52,59.63,8.04,10.72,20.67,17.04,34.07,17.04h62.27l23.43,62.61c1.25,3.34,4.44,5.55,8.01,5.54h51.11c43.15.04,79.42-32.41,84.16-75.3v-3.07c11.29-8.81,17.94-22.3,18.06-36.63,0-13.98-6.25-27.22-17.04-36.12h0ZM227.35,316.54l-19.17-51.11h24.45l19.17,51.11h-24.45ZM272.58,316.54h-2.64l-6.39-17.04h53.92c-12.37,10.99-28.34,17.05-44.89,17.04h0ZM331.27,282.46h-74.11l-6.39-17.04h77.18c3.53,0,7.04-.41,10.48-1.19-1.53,6.38-3.94,12.51-7.16,18.23ZM352.7,235.14c-5.52,8.27-14.81,13.23-24.75,13.25h-80.92c-16.47,0-29.81-13.35-29.81-29.81s13.35-29.81,29.81-29.81v-17.04c-25.85.05-46.8,21-46.85,46.85-.03,10.89,3.77,21.44,10.73,29.81h-23.51c0-23.52-19.07-42.59-42.59-42.59v17.04c14.11,0,25.55,11.44,25.55,25.55h-42.59c-14.11,0-25.55-11.44-25.55-25.55s11.44-25.55,25.55-25.55v-17.04c-2.86,0-5.71.28-8.52.85,1.77-19.83,18.42-35,38.33-34.92,4.72-.02,9.4.85,13.8,2.56,5.26,2.1,10,5.33,13.88,9.46-4.16,6.61-6.38,14.25-6.39,22.06h17.04c0-14.11,11.44-25.55,25.55-25.55v-17.04c-8.87.03-17.5,2.83-24.7,8.01-3.16-3.26-6.71-6.12-10.56-8.52,14.56-24.18,45.97-31.98,70.15-17.42,15.26,9.19,24.64,25.67,24.74,43.49h17.04c0-5.58-.73-11.13-2.13-16.53,2.11-.34,4.25-.51,6.39-.51,21.14,0,38.29,17.11,38.33,38.25v2.3c0,2.83,1.4,5.48,3.75,7.07,13.69,9.15,17.37,27.66,8.22,41.35Z"/>
  <path class="cls-1" d="M281.1,180.25v17.04c14.11,0,25.55,11.44,25.55,25.55h17.04c0-23.52-19.07-42.59-42.59-42.59ZM478.38,35.44c-13.77-2.36-24.56-13.15-26.92-26.92,0-4.7-3.81-8.52-8.52-8.52s-8.52,3.81-8.52,8.52c-2.36,13.77-13.15,24.56-26.92,26.92-4.7,0-8.52,3.81-8.52,8.52s3.81,8.52,8.52,8.52c13.77,2.36,24.56,13.15,26.92,26.92,0,4.7,3.81,8.52,8.52,8.52s8.52-3.81,8.52-8.52c2.36-13.77,13.15-24.56,26.92-26.92,4.7,0,8.52-3.81,8.52-8.52s-3.81-8.52-8.52-8.52ZM442.95,56.14c-3.3-4.75-7.43-8.88-12.18-12.18,4.75-3.3,8.88-7.43,12.18-12.18,3.3,4.75,7.43,8.88,12.18,12.18-4.75,3.3-8.88,7.43-12.18,12.18ZM78.03,427.27c-13.77-2.36-24.56-13.15-26.92-26.92,0-4.7-3.81-8.52-8.52-8.52s-8.52,3.81-8.52,8.52c-2.36,13.77-13.15,24.56-26.92,26.92C2.99,427.95-.05,431.57,0,435.79c-.05,4.22,2.99,7.84,7.16,8.52,13.77,2.36,24.56,13.15,26.92,26.92,0,4.7,3.81,8.52,8.52,8.52s8.52-3.81,8.52-8.52c2.36-13.77,13.15-24.56,26.92-26.92,4.7,0,8.52-3.81,8.52-8.52s-3.81-8.52-8.52-8.52ZM42.59,447.97c-3.3-4.75-7.43-8.88-12.18-12.18,4.75-3.3,8.88-7.43,12.18-12.18,3.3,4.75,7.43,8.88,12.18,12.18-4.75,3.3-8.88,7.43-12.18,12.18ZM397.2,316.54c-2.9,4.6-5.88,9.11-9.11,13.54l13.71,10.05c3.49-4.77,7.07-9.71,9.88-15.08l-14.48-8.52ZM377.87,342.86c-3.49,4-7.33,8.01-11.24,11.84l11.93,12.18c4.26-4.09,8.35-8.43,12.18-12.86l-12.86-11.16ZM434.77,154.78l-16.7,4.51c1.53,5.28,2.81,10.56,3.92,15.84l17.04-3.32c-1.19-5.79-2.56-11.58-4.26-17.04h0ZM411.86,287.4c-2.04,4.94-4.26,9.97-6.73,14.91l15.25,7.58c2.64-5.28,5.54-10.39,7.24-16.18l-15.76-6.3h0ZM353.76,40.97l-9.88,13.88c4.43,3.15,8.52,6.56,12.86,10.05l10.99-13.03c-4.43-3.75-9.11-7.41-13.97-10.9ZM403.17,91.14l-13.46,9.71c3.15,4.43,6.22,9.03,8.52,13.71l14.65-8.52c-2.98-5.11-6.22-10.05-9.71-14.91ZM380.76,63.97l-12.1,12.01c3.92,3.83,7.58,7.84,11.07,12.01l13.03-10.99c-3.75-4.51-7.84-8.52-12.01-13.03ZM421.74,121.38l-15.33,7.75c2.3,4.94,4.51,9.97,6.47,14.99l15.84-6.47c-2.04-5.45-4.43-10.99-6.98-16.27ZM421.06,256.23c-1.11,5.28-2.56,10.65-4.09,15.76l16.27,5.03c2.04-5.62,3.58-11.58,4.86-17.21l-17.04-3.58ZM441.5,189.27l-17.04,1.96c.68,5.37,1.02,10.9,1.28,16.35l17.04-.6c.17-5.96-.6-11.84-1.28-17.72ZM425.91,223.86c0,5.45-.77,10.9-1.45,16.27l17.04,2.21c.34-5.79.94-11.76,1.45-17.63l-17.04-.85ZM34.07,225.73l-17.04,1.02c0,5.88.94,11.84,1.79,17.63l17.04-2.39c-.6-5.37-1.11-10.65-1.79-16.27ZM323.69,22.83l-7.41,15.33c4.86,2.39,9.71,5.03,14.31,7.75l8.52-14.65c-5.2-2.98-10.48-5.79-15.42-8.43ZM38.93,258.19l-16.61,3.83c1.36,5.71,2.9,11.5,4.69,17.04l16.27-5.11c-1.7-5.2-3.07-10.48-4.34-15.76h0ZM18.06,190.98c-.43,6.3-1.02,12.1-1.02,18.06h17.04c0-5.37.43-10.9,1.02-16.27l-17.04-1.79h0ZM63.8,318.07l-14.48,9.03c3.07,4.94,6.47,9.88,10.05,14.65l13.63-10.22c-3.24-4.34-6.39-8.52-9.2-13.46ZM25.21,156.48c-1.79,5.71-3.24,11.5-4.34,17.29l17.04,3.24c1.02-5.37,2.3-10.65,3.75-15.93l-16.44-4.6h0ZM83.31,344.22l-12.78,11.24c3.92,4.43,8.52,8.52,12.35,12.78l11.76-12.27c-3.92-3.75-7.75-7.75-11.33-11.76ZM37.4,123.34c-2.56,5.79-4.86,10.82-6.9,16.27l15.93,6.05c1.99-5.11,4.12-10.14,6.39-15.08l-15.42-7.24h0ZM106.9,366.37l-10.73,13.63c4.51,3.66,9.37,7.24,14.23,10.56l9.54-14.4c-4.43-3.07-8.52-6.39-13.03-9.8ZM133.82,385.02l-8.35,14.91c5.11,2.81,10.39,5.54,15.84,8.01l7.07-15.42c-4.94-2.3-9.8-4.77-14.57-7.5h0ZM327.7,383.92c-4.69,2.64-9.54,5.2-14.48,7.58l7.33,15.67c5.37-2.56,10.65-5.37,15.67-8.52l-8.52-14.74ZM48.81,289.11l-15.67,6.47c2.21,5.45,4.69,10.9,7.41,16.1l15.16-7.75c-2.46-4.86-4.76-9.81-6.9-14.82h0ZM54.94,92.59c-3.15,4.86-6.3,9.97-9.28,14.99l14.74,8.52c2.73-4.6,5.71-9.28,8.52-13.71,0,0-13.97-9.8-13.97-9.8ZM77.86,65.33c-4.17,4.26-8.52,8.52-11.93,13.2l13.12,10.82c3.49-4.09,7.16-8.18,10.99-12.1,0,0-12.18-11.93-12.18-11.93ZM104.6,42.17c-4.77,3.49-9.37,7.16-13.88,10.99l11.5,12.95c4.09-3.58,8.52-6.98,12.78-10.22,0,0-10.39-13.71-10.39-13.71ZM202.48,3.15c-5.9.7-11.75,1.69-17.55,2.98l3.66,16.61c5.28-1.11,10.65-2.04,16.01-2.73,0,0-2.13-16.87-2.13-16.87ZM167.81,10.56c-5.62,1.7-11.24,3.75-17.04,5.88l6.39,15.84c5.03-1.96,10.22-3.83,15.33-5.37,0,0-4.69-16.35-4.69-16.35ZM220.11,1.36l.77,17.04h16.35l.6-17.04s-17.72,0-17.72,0ZM290.22,9.88l-4.77,16.27c5.2,1.62,10.39,3.32,15.42,5.28l5.79-15.67c-5.11-2.13-10.73-4.09-16.44-5.88ZM255.55,2.9l-2.04,17.04c5.37.68,10.73,1.53,16.1,2.64l3.41-17.04c-5.79-1.02-11.67-1.96-17.46-2.64h0ZM134.84,23.68c-5.2,2.64-10.39,5.54-15.5,8.52l8.52,14.57c4.66-2.84,9.43-5.48,14.31-7.92l-7.33-15.16ZM354.53,365.6c-4.17,3.41-8.52,6.73-13.03,9.8l9.71,14.06c4.86-3.41,9.63-6.98,14.14-10.73l-10.82-13.12h0Z"/>
  <path class="cls-1" d="M373.43,122.45c-8.33-13.01-18.38-24.83-29.89-35.13-69.87-63.02-177.59-57.47-240.61,12.4-63.02,69.87-57.47,177.59,12.4,240.61,7.04,6.35,14.59,12.1,22.59,17.19,15.01,9.67,24.04,26.35,23.94,44.21v42.59c.02,15.82,10.92,29.54,26.32,33.14,4.44,23.1,26.77,38.22,49.87,33.78,17.11-3.29,30.49-16.67,33.78-33.78,15.4-3.6,26.3-17.32,26.32-33.14v-42.59c-.16-17.72,8.74-34.29,23.6-43.95,79.26-50.71,102.4-156.06,51.7-235.32h0ZM229.99,495.42c-10.83,0-20.49-6.82-24.11-17.04h48.21c-3.61,10.21-13.27,17.04-24.11,17.04ZM264.07,461.35h-68.15c-9.41,0-17.04-7.63-17.04-17.04h102.22c0,9.41-7.63,17.04-17.04,17.04ZM281.1,427.27h-102.22v-17.04h102.22v17.04ZM344.18,316.51c-9.26,10.34-19.87,19.38-31.56,26.86h-.09c-17.29,11.1-28.65,29.41-30.92,49.83h-17.55v-42.59h-17.04v42.59h-34.07v-51.11h-17.04v51.11h-17.55c-2.4-20.51-13.88-38.86-31.26-50-71.15-45.92-91.61-140.82-45.69-211.97,24.79-38.42,65.44-63.77,110.86-69.13,5.88-.7,11.8-1.07,17.72-1.11,37.74-.19,74.2,13.73,102.22,39.01,63.09,56.48,68.45,153.42,11.97,216.51Z"/>
</svg>