<?xml version="1.0" encoding="UTF-8"?>
<svg id="Calque_1" data-name="Calque 1" xmlns="http://www.w3.org/2000/svg" viewBox="0 0 477.97 468">
  <defs>
    <style>
      .cls-1 {
        fill: #e95d0c;
      }
    </style>
  </defs>
  <path class="cls-1" d="M472.13,286.28l-30.24-54.16c-.09-.16-.19-.32-.29-.48-1-1.55-2.1-3.05-3.27-4.48V95.45c0-4.97-4.03-9-9-9s-9,4.03-9,9v117.72c-2.27-1.08-4.62-1.99-7.02-2.72-1.33-.4-2.68-.74-4.04-1.03,3.97-7,6.05-14.9,6.04-22.94,0-25.77-20.97-46.74-46.74-46.74s-46.74,20.97-46.74,46.74c0,23.01,16.72,42.17,38.64,46.02-2.07,4.35-3.65,9.57-4.17,15.78l-1.68,20.27-29.63-42.7c-1.68-2.42-4.44-3.87-7.39-3.87h-157.25c-2.95,0-5.71,1.45-7.4,3.87l-29.63,42.7-1.68-20.27c-.51-6.21-2.09-11.43-4.17-15.78,21.92-3.85,38.64-23.01,38.64-46.02,0-25.77-20.97-46.74-46.74-46.74s-46.74,20.97-46.74,46.74c0,8.04,2.08,15.95,6.04,22.95-1.36.29-2.71.63-4.04,1.03-2.4.73-4.75,1.64-7.02,2.72V38.36c0-11.23,9.13-20.36,20.36-20.36h321.97c11.23,0,20.36,9.13,20.36,20.36v22.09c0,4.97,4.03,9,9,9s9-4.03,9-9v-22.09c0-21.15-17.21-38.36-38.36-38.36H78c-21.15,0-38.36,17.21-38.36,38.36v188.81c-1.18,1.43-2.27,2.92-3.27,4.48-.1.15-.19.31-.28.48l-30.24,54.16c-6.58,10.93-7.65,25.42-2.94,39.8,4.45,13.57,13.3,25.18,24.26,31.86,1.41.86,3.03,1.31,4.68,1.31h28.56l-36.62,52.78c-2.83,4.08-1.82,9.69,2.26,12.52,1.51,1.05,3.3,1.61,5.14,1.61h51.49c4.97,0,9-4.03,9-9s-4.03-9-9-9h-34.29l54.08-77.93c1.38.22,2.78.35,4.2.35h55.94c14.68,0,26.62-11.94,26.62-26.62s-11.94-26.61-26.62-26.61h-23.45l25.92-37.36h147.83l25.92,37.36h-23.45c-14.68,0-26.61,11.94-26.61,26.61s11.94,26.62,26.61,26.62h55.95c1.42,0,2.82-.12,4.2-.35l54.08,77.93h-121.67c-8.24-15.76-21.73-28.36-38.13-35.47,9.76-8.57,15.94-21.13,15.94-35.11,0-25.77-20.97-46.73-46.74-46.73s-46.74,20.97-46.74,46.73c0,13.98,6.18,26.54,15.94,35.11-16.41,7.11-29.89,19.71-38.13,35.47h-52.38c-4.97,0-9,4.03-9,9s4.03,9,9,9h45.66c-1.4,5.87-2.1,11.88-2.11,17.91v14.93c0,4.97,4.03,9,9,9h137.51c4.97,0,9-4.03,9-9v-14.93c0-6.17-.74-12.16-2.11-17.91h132.15c4.97,0,9-4.03,9-9,0-1.84-.56-3.63-1.61-5.13l-36.62-52.78h28.56c1.65,0,3.27-.45,4.68-1.31,10.97-6.68,19.81-18.29,24.26-31.86,4.72-14.37,3.64-28.87-2.93-39.8ZM109.39,157.74c15.85,0,28.74,12.89,28.74,28.74s-12.89,28.74-28.74,28.74-28.74-12.89-28.74-28.74,12.89-28.74,28.74-28.74h0ZM171.21,303.95c0,4.75-3.87,8.62-8.62,8.62h-55.94c-2.63,0-5.11-1.2-6.75-3.26l-19-36.33c-2.26-4.42-7.69-6.18-12.11-3.91-4.42,2.26-6.18,7.69-3.91,12.11.02.05.05.09.07.14l15.29,29.24-2.72,24.02-4.63,6.67h-38.34c-13.05-9.51-21.72-31.85-13.26-45.76.06-.1.12-.19.17-.29l30.17-54.04c8.07-12.33,26.14-19.68,40.39-11.01.22.13.44.26.67.37.1.05,9.84,5.27,11,19.25l3.1,37.32c.39,4.67,4.29,8.26,8.97,8.26h46.81c4.75,0,8.62,3.87,8.62,8.62h0ZM210.25,337.58c0-15.85,12.89-28.73,28.74-28.73s28.74,12.89,28.74,28.73-12.89,28.74-28.74,28.74-28.74-12.89-28.74-28.74ZM298.74,450h-119.51v-5.93c0-32.95,26.81-59.76,59.76-59.76s59.76,26.81,59.76,59.76v5.93ZM339.84,186.48c0-15.85,12.89-28.74,28.74-28.74s28.74,12.89,28.74,28.74-12.89,28.74-28.74,28.74-28.74-12.89-28.74-28.74ZM443.4,341.24h-38.33l-4.63-6.67-2.72-24.01,15.29-29.24c2.3-4.4.6-9.84-3.8-12.15h0c-4.4-2.3-9.84-.6-12.14,3.8,0,0,0,0,0,0l-19,36.33c-.8,1.01-1.82,1.82-2.98,2.39h-.03c-1.16.58-2.44.87-3.73.87h-55.95c-4.75,0-8.61-3.86-8.61-8.62s3.86-8.61,8.61-8.61h46.81c4.68,0,8.58-3.59,8.97-8.26l3.1-37.32c1.11-13.41,10.15-18.77,11.05-19.27.27-.13.35-.18.62-.35,14.25-8.68,32.32-1.33,40.39,11.01l30.17,54.04c.05.1.11.2.17.29,8.47,13.91-.21,36.26-13.26,45.76h0ZM359.82,107.76l.76-5.06-53.05,46.66c-4.1,3.61-10.33,3.26-14.01-.79l-36.77-40.48-60.24,45.57c-1.73,1.31-3.85,2.03-6.03,2.02-3.14,0-6.09-1.46-7.98-3.97-3.33-4.4-2.46-10.68,1.94-14.01l67.53-51.09c4.13-3.12,9.96-2.58,13.43,1.25l36.3,39.96,46.31-40.73h-7.51c-5.52,0-10-4.48-10-10s4.48-10,10-10h34.02c5.52,0,10,4.48,10,10,0,.5-.04.99-.11,1.48l-4.83,32.14c-.74,4.96-5.01,8.52-9.88,8.52-.49,0-.99-.04-1.5-.11-5.46-.82-9.22-5.91-8.4-11.38h0ZM94.43,54.87c0-4.97,4.03-9,9-9h89.22c4.97,0,9,4.03,9,9s-4.03,9-9,9h-89.22c-4.97,0-9-4.03-9-9ZM94.43,93.07c0-4.97,4.03-9,9-9h89.22c4.97,0,9,4.03,9,9s-4.03,9-9,9h-89.22c-4.97,0-9-4.03-9-9h0Z"/>
</svg>