<?xml version="1.0" encoding="UTF-8"?>
<svg id="Calque_1" data-name="Calque 1" xmlns="http://www.w3.org/2000/svg" viewBox="0 0 496 496">
  <defs>
    <style>
      .cls-1 {
        fill: #e95d0c;
      }
    </style>
  </defs>
  <path class="cls-1" d="M481.66,366.34c-9.16-9.21-21.63-14.38-34.62-14.34h-20.8l-34.23-20.53v-19.07c23.52-11.71,38.79-35.29,39.86-61.54l8.54-11.38c25.86-34.49,18.87-83.41-15.62-109.28-2.59-1.94-5.29-3.72-8.1-5.32-14.78-8.43-31.5-12.87-48.52-12.88h-16.3c-17.02,0-33.74,4.45-48.52,12.88-37.43,21.39-50.43,69.07-29.04,106.5,1.6,2.81,3.38,5.51,5.32,8.1l8.54,11.38c1.06,26.25,16.34,49.84,39.86,61.54v19.07l-34.22,20.53h-29.78c-13.25,0-24-10.75-24-24v-48c0-4.42-3.58-8-8-8v-24c0-13.25-10.75-24-24-24s-24,10.75-24,24v24c-4.42,0-8,3.58-8,8v56c.05,45.48,34.71,83.45,80,87.64v64.36c0,4.42,3.58,8,8,8h224c4.42,0,8-3.58,8-8v-87.03c.04-12.99-5.13-25.46-14.34-34.62ZM384.22,345.46l25.46,15.28-16.93,12.7-20.19-20.2,11.66-7.78ZM311.26,138.78c12.36-7.06,26.35-10.77,40.58-10.78h16.3c14.23,0,28.22,3.72,40.58,10.78,29.62,16.82,40.03,54.45,23.26,84.1v-8.35c0-11.06-3.27-21.86-9.41-31.06l-7.94-11.91c-2.45-3.68-7.42-4.67-11.09-2.22-.12.08-.24.17-.36.26l-10.67,8c-12.48,9.32-27.63,14.37-43.2,14.4h-21.33c-19.05.03-35.44,13.47-39.2,32.14-17.52-29.19-8.06-67.06,21.13-84.58.44-.27.89-.53,1.34-.78h0ZM304,248v-16c0-13.25,10.75-24,24-24h21.34c19.03-.04,37.55-6.21,52.8-17.6l3.9-2.92,3.25,4.86c4.39,6.57,6.72,14.29,6.72,22.18v33.47c0,30.93-25.07,56-56,56s-56-25.07-56-56h0ZM360,320c5.39-.02,10.75-.64,16-1.86v13.6l-16,10.66-16-10.66v-13.6c5.25,1.22,10.61,1.85,16,1.86ZM335.78,345.46l11.66,7.78-20.19,20.2-16.93-12.7,25.46-15.28ZM200,248c0-4.42,3.58-8,8-8s8,3.58,8,8v24h-16v-24ZM480,480h-32v-56h-16v56h-160v-64c0-4.42-3.58-8-8-8-39.75-.04-71.96-32.25-72-72v-48h32v40c.03,22.08,17.92,39.97,40,40h29.34l29.86,22.4c3.18,2.39,7.64,2.07,10.46-.74l26.34-26.34,26.34,26.34c2.81,2.81,7.27,3.13,10.46.74l29.86-22.4h20.37c8.74.03,17.11,3.5,23.31,9.66,6.2,6.17,9.68,14.56,9.66,23.31v79.03Z"/>
  <path class="cls-1" d="M40,208h37.34l61.86,46.4c1.38,1.04,3.07,1.6,4.8,1.6,4.42,0,8-3.58,8-8v-40h48c22.08-.03,39.97-17.92,40-40V40c-.03-22.08-17.92-39.97-40-40H40C17.92.03.03,17.92,0,40v128c.03,22.08,17.92,39.97,40,40ZM16,40c0-13.25,10.75-24,24-24h160c13.25,0,24,10.75,24,24v128c0,13.25-10.75,24-24,24h-56c-4.42,0-8,3.58-8,8v32l-51.2-38.4c-1.38-1.04-3.07-1.6-4.8-1.6h-40c-13.25,0-24-10.75-24-24V40Z"/>
  <path class="cls-1" d="M105.05,53.22c10.34-8.3,25.44-6.64,33.74,3.69,7.7,9.6,6.9,23.46-1.86,32.11-15.47,14.6-24.45,34.79-24.93,56.06v6.93h16v-6.93c.5-17.01,7.78-33.1,20.22-44.71,9.87-9.85,13.93-24.11,10.73-37.68-3.42-14.7-14.9-26.18-29.6-29.6-21.51-5.14-43.11,8.13-48.25,29.64-.73,3.04-1.09,6.15-1.1,9.28h16c-.01-7.31,3.32-14.23,9.05-18.78Z"/>
  <circle class="cls-1" cx="120" cy="176" r="16"/>
  <path class="cls-1" d="M152,352h-35.05l-21.75-43.58c-2.36-3.95-7.47-5.25-11.43-2.89-1.19.71-2.18,1.7-2.89,2.89l-21.82,43.58H24c-13.25,0-24,10.75-24,24h0v96c0,13.25,10.75,24,24,24h128c13.25,0,24-10.75,24-24h0v-96c0-13.25-10.75-24-24-24h0ZM160,472c0,4.42-3.58,8-8,8H24c-4.42,0-8-3.58-8-8v-96c0-4.42,3.58-8,8-8h40c3.03,0,5.8-1.71,7.16-4.42l16.84-33.7,16.84,33.7c1.36,2.71,4.13,4.43,7.16,4.42h40c4.42,0,8,3.58,8,8v96Z"/>
  <path class="cls-1" d="M48,384h96v16H48v-16ZM32,416h112v16H32v-16ZM32,448h112v16H32v-16Z"/>
</svg>