<?xml version="1.0" encoding="UTF-8"?>
<svg id="Calque_1" data-name="Calque 1" xmlns="http://www.w3.org/2000/svg" viewBox="0 0 399.22 460.8">
  <defs>
    <style>
      .cls-1 {
        fill: #e95d0c;
      }
    </style>
  </defs>
  <path class="cls-1" d="M362.31,353.66H36.92c-20.36,0-36.92-16.56-36.92-36.92v-19.65c0-20.36,16.56-36.91,36.92-36.91h325.39c20.36,0,36.91,16.56,36.91,36.91v19.65c0,20.36-16.56,36.92-36.91,36.92h0ZM36.92,277.15c-11,0-19.95,8.95-19.95,19.95v19.65c0,11,8.95,19.95,19.95,19.95h325.39c11,0,19.95-8.95,19.95-19.95v-19.65c0-11-8.95-19.95-19.95-19.95H36.92ZM199.61,110.53c-30.47,0-55.26-24.79-55.26-55.26S169.14,0,199.61,0s55.27,24.79,55.27,55.27-24.79,55.26-55.27,55.26h0ZM199.61,16.97c-21.12,0-38.3,17.18-38.3,38.3s17.18,38.3,38.3,38.3,38.3-17.18,38.3-38.3-17.18-38.3-38.3-38.3Z"/>
  <path class="cls-1" d="M294.32,277.15H104.9c-9.64,0-18.78-4.24-25-11.6-6.23-7.35-8.9-17.08-7.3-26.58l10.98-65.48c3.86-23.34,24.08-40.45,47.74-40.39h35.72c4.69,0,8.48,3.8,8.48,8.48s-3.8,8.48-8.48,8.48h-35.72c-15.37-.04-28.5,11.07-31,26.23l-10.99,65.48c-.77,4.58.51,9.27,3.52,12.81,3,3.55,7.41,5.59,12.05,5.59h189.42c4.65,0,9.06-2.04,12.05-5.59,3-3.54,4.29-8.23,3.52-12.81l-10.99-65.48c-2.5-15.16-15.63-26.27-31-26.23h-35.72c-4.68,0-8.48-3.8-8.48-8.48h0c0-4.69,3.8-8.48,8.48-8.48h35.72c23.74,0,43.81,16.99,47.74,40.39l10.99,65.48c1.6,9.5-1.07,19.23-7.3,26.58-6.22,7.36-15.37,11.61-25.01,11.6h0Z"/>
  <path class="cls-1" d="M191.17,277.15h-53.64c-4.68,0-8.48-3.8-8.48-8.48h0c0-4.69,3.8-8.48,8.48-8.48h53.64c7.92,0,14.36-6.44,14.36-14.36s-6.44-14.36-14.36-14.36h-59.65c-2.48,0-4.83-1.08-6.45-2.97-1.61-1.88-2.32-4.38-1.93-6.82l4.67-29.91c.71-4.62,5.02-7.79,9.64-7.08.02,0,.03,0,.05,0,4.63.72,7.79,5.06,7.07,9.69l-3.14,20.11h49.74c17.27,0,31.33,14.05,31.33,31.33,0,17.27-14.05,31.33-31.33,31.33h0Z"/>
  <path class="cls-1" d="M267.7,231.46h-82.11c-4.68,0-8.48-3.81-8.47-8.49,0-4.68,3.8-8.47,8.47-8.47h72.2l-3.14-20.11c-.72-4.63,2.44-8.96,7.06-9.69,0,0,0,0,0,0,4.67-.71,8.97,2.45,9.69,7.07l4.67,29.91c.72,4.63-2.44,8.96-7.07,9.69-.43.07-.87.1-1.31.1ZM36.92,277.15c-4.68,0-8.48-3.8-8.48-8.48v-82.39c0-1.44.36-2.85,1.06-4.11l37.96-68.58c2.27-4.1,7.43-5.57,11.53-3.31,4.1,2.27,5.58,7.43,3.31,11.53l-36.9,66.67v80.2c0,4.68-3.8,8.48-8.48,8.48h0Z"/>
  <path class="cls-1" d="M86.83,129.76c-16.68,0-30.25-13.57-30.25-30.25s13.57-30.25,30.25-30.25,30.25,13.57,30.25,30.25-13.57,30.25-30.25,30.25ZM86.83,86.23c-7.32,0-13.28,5.96-13.28,13.28s5.96,13.28,13.28,13.28,13.28-5.96,13.28-13.28-5.96-13.28-13.28-13.28ZM362.31,277.15c-4.68,0-8.48-3.8-8.48-8.48h0v-80.2l-36.9-66.67c-2.27-4.1-.78-9.26,3.31-11.53,4.09-2.26,9.27-.78,11.53,3.31l37.96,68.58c.7,1.26,1.06,2.67,1.06,4.11v82.39c0,4.68-3.8,8.48-8.48,8.48h0,0Z"/>
  <path class="cls-1" d="M312.39,129.76c-16.68,0-30.25-13.57-30.25-30.25s13.57-30.25,30.25-30.25,30.25,13.57,30.25,30.25-13.57,30.25-30.25,30.25ZM312.39,86.23c-7.33,0-13.28,5.96-13.28,13.28s5.96,13.28,13.28,13.28,13.28-5.96,13.28-13.28c0-7.32-5.96-13.28-13.28-13.28ZM338.11,460.8H61.11c-4.68,0-8.48-3.8-8.48-8.48v-107.14c0-4.68,3.8-8.48,8.48-8.48h277.01c4.68,0,8.48,3.8,8.48,8.48v107.14c0,4.68-3.8,8.48-8.48,8.48h0ZM69.59,443.83h260.04v-90.17H69.59v90.17Z"/>
</svg>