<?xml version="1.0" encoding="UTF-8"?>
<svg id="Calque_1" data-name="Calque 1" xmlns="http://www.w3.org/2000/svg" viewBox="0 0 496 496">
  <defs>
    <style>
      .cls-1 {
        fill: #e95d0c;
      }
    </style>
  </defs>
  <path class="cls-1" d="M488,240h-8v-49.38c.05-16.62-6.56-32.57-18.34-44.28-11.72-11.78-27.67-18.39-44.29-18.34h-9.37v-8.66c19.1-11.09,32-31.71,32-55.34,0-35.29-28.71-64-64-64s-64,28.71-64,64c0,23.62,12.9,44.26,32,55.34v8.66h-9.37c-16.62-.05-32.57,6.56-44.29,18.34-11.79,11.72-18.39,27.66-18.34,44.28v49.38h-16v-24c0-4.42-3.58-8-8-8h-24v-2.74c0-23.33,7.87-45.43,22.3-63.34,2.98,1.32,6.25,2.09,9.7,2.09,13.23,0,24-10.77,24-24s-10.77-24-24-24-24,10.77-24,24c0,3.9,1.02,7.53,2.68,10.79-17.31,20.94-26.75,47.29-26.68,74.46v2.74h-24c-4.42,0-8,3.58-8,8v24h-8c-4.42,0-8,3.58-8,8v32c0,4.42,3.58,8,8,8h8v48c-22.06,0-40,17.94-40,40,0,11.88,5.31,22.45,13.56,29.78-12.52,5.71-22.88,15.28-29.56,27.3-6.68-12.03-17.04-21.59-29.56-27.3,8.25-7.34,13.56-17.9,13.56-29.78,0-22.06-17.94-40-40-40s-40,17.94-40,40c0,11.88,5.31,22.45,13.56,29.78C15.44,415.87,0,438.14,0,464v24c0,4.42,3.58,8,8,8h336c4.42,0,8-3.58,8-8v-8h120c4.42,0,8-3.58,8-8v-184h8c4.42,0,8-3.58,8-8v-32c0-4.42-3.58-8-8-8ZM256,112c4.42,0,8.01,3.58,8.02,8,0,4.42-3.58,8.01-8,8.02-4.42,0-8.01-3.58-8.02-8v-.02c0-4.42,3.59-8,8-8ZM464,190.62v49.38h-16v-32h-16v32h-48v-59.06l20.42,10.21c2.07,1.05,4.5,1.14,6.64.24,2.14-.89,3.79-2.66,4.53-4.86l13.66-40.96c7.99,2.08,15.27,6.25,21.1,12.09,8.77,8.72,13.68,20.59,13.65,32.96ZM348,144l15.85,21.13-15.18,7.59-9.57-28.72h8.9ZM404,144h8.9l-9.57,28.72-15.18-7.59,15.84-21.13ZM376,16c23.52,0,43.1,17.02,47.18,39.38-15.2-1.89-29.33-8.81-40.14-19.66l-1.37-1.38c-3.17-3.02-8.15-3.02-11.33,0l-1.36,1.37c-10.82,10.85-24.95,17.77-40.15,19.66,4.06-22.35,23.65-39.37,47.17-39.37ZM328.6,71.58c17.56-1.73,34.13-8.91,47.4-20.54,13.27,11.63,29.84,18.81,47.4,20.54-3.64,22.88-23.51,40.42-47.4,40.42s-43.76-17.54-47.4-40.42ZM376,128c5.54,0,10.87-.78,16-2.1v7.44l-16,21.33-16-21.33v-7.44c5.22,1.38,10.6,2.08,16,2.1ZM288,190.62c0-12.46,4.85-24.17,13.66-32.97,5.83-5.83,13.12-10.01,21.1-12.09l13.66,40.96c1.41,4.2,5.95,6.46,10.15,5.05.35-.12.68-.26,1.01-.42l20.42-10.22v59.06h-48v-32h-16v32h-16v-49.38ZM192,224h48v16h-48v-16ZM152,376c0-13.23,10.77-24,24-24s24,10.77,24,24-10.77,24-24,24-24-10.77-24-24ZM40,376c0-13.23,10.77-24,24-24s24,10.77,24,24-10.77,24-24,24-24-10.77-24-24ZM16,464c0-26.47,21.53-48,48-48s48,21.53,48,48v16H16v-16ZM128,464c0-26.47,21.53-48,48-48s48,21.53,48,48v16h-96v-16ZM336,480h-96v-16c0-26.47,21.53-48,48-48s48,21.53,48,48v16ZM264,376c0-13.23,10.77-24,24-24s24,10.77,24,24-10.77,24-24,24-24-10.77-24-24ZM464,464h-112c0-25.86-15.44-48.13-37.56-58.22,8.25-7.34,13.56-17.9,13.56-29.78,0-22.06-17.94-40-40-40s-40,17.94-40,40c0,11.88,5.31,22.45,13.56,29.78-12.52,5.71-22.88,15.28-29.56,27.3-6.68-12.03-17.04-21.59-29.56-27.3,8.25-7.34,13.56-17.9,13.56-29.78-.03-15.88-9.44-30.25-24-36.61v-51.39h272v176ZM480,272H176v-16h304v16ZM24,160h128c13.23,0,24-10.77,24-24v-12.69l29.66-29.66c3.12-3.12,3.13-8.18,0-11.3h0s-29.66-29.67-29.66-29.67v-12.69c0-13.23-10.77-24-24-24H24C10.77,16,0,26.77,0,40v96c0,13.23,10.77,24,24,24ZM16,40c0-4.42,3.59-8,8-8h128c4.41,0,8,3.58,8,8v16c0,2.13.84,4.16,2.34,5.66l26.34,26.34-26.34,26.34c-1.5,1.5-2.35,3.53-2.34,5.66v16c0,4.42-3.59,8-8,8H24c-4.41,0-8-3.58-8-8V40Z"/>
  <path class="cls-1" d="M32,48h112v16H32v-16ZM32,112h112v16H32v-16ZM48,80h80v16H48v-16Z"/>
</svg>